<?xml version="1.0" standalone="no"?>
<!DOCTYPE svg PUBLIC "-//W3C//DTD SVG 20010904//EN"
 "http://www.w3.org/TR/2001/REC-SVG-20010904/DTD/svg10.dtd">
<svg version="1.0" xmlns="http://www.w3.org/2000/svg"
 width="637.000000pt" height="391.000000pt" viewBox="0 0 637.000000 391.000000"
 preserveAspectRatio="xMidYMid meet">

<g transform="translate(0.000000,391.000000) scale(0.100000,-0.100000)"
fill="#e03827" stroke="none">
<path d="M1625 3575 c-206 -36 -376 -116 -513 -239 -115 -105 -235 -298 -296
-477 -47 -140 -96 -390 -96 -493 0 -24 -6 -48 -13 -55 -9 -7 -99 -12 -263 -13
l-249 -3 0 -300 0 -300 260 -5 260 -5 2 -30 c17 -207 76 -470 135 -605 175
-396 423 -594 815 -650 55 -8 498 -10 1528 -7 1314 3 1456 5 1517 20 337 84
544 248 695 552 75 151 124 328 153 555 11 85 20 156 20 158 0 1 114 2 254 2
195 0 255 3 257 13 2 6 3 144 1 304 l-3 293 -257 2 -257 3 -12 90 c-22 162
-34 229 -63 340 -129 494 -412 778 -845 850 -77 13 -298 15 -1525 14 -1100 -1
-1451 -4 -1505 -14z m2284 -595 c242 -22 365 -174 433 -536 20 -108 22 -150
22 -444 0 -290 -2 -339 -22 -452 -53 -308 -156 -475 -329 -536 -43 -14 -132
-17 -828 -20 -829 -3 -868 -1 -962 44 -118 57 -217 217 -262 424 -70 320 -54
900 30 1162 71 221 188 336 362 357 86 10 1440 11 1556 1z"/>
<path d="M2683 2540 c-62 -13 -100 -36 -133 -81 -63 -88 -94 -241 -94 -469 1
-303 53 -472 166 -532 l43 -23 475 0 c464 0 476 0 521 21 81 38 135 143 159
312 17 116 8 456 -15 536 -34 123 -82 192 -155 225 -30 14 -95 16 -480 18
-245 1 -464 -2 -487 -7z"/>
</g>
</svg>
